<svg xmlns="http://www.w3.org/2000/svg" width="220" viewBox="0 0 220 220">
  <g data-name="Group 6">
    <g data-name="Rectangle 24" transform="rotate(-45 134.862 55.861)" stroke="#eee" stroke-width="10" fill="none">
      <rect width="158" height="158" rx="20" stroke="none"/>
      <rect x="5" y="5" width="148" height="148" rx="15"/>
    </g>
    
    <path d="M111.407 119.494l-13.1 34.12-5.13-11.522-11.52 5.13 12.941-33.712a26.756 26.756 0 1 1 33.73 0l12.941 33.712-11.522-5.13-5.13 11.522-13.1-34.12h-.11zm-3.113-.186l-10.2 26.58-3.42-7.682-7.682 3.42 10.1-26.316a26.592 26.592 0 0 0 11.2 4zm17.541-4l10.1 26.316-7.678-3.417-3.42 7.682-10.2-26.58a26.592 26.592 0 0 0 11.2-4zm-14.372 1.213A23.783 23.783 0 1 0 87.68 92.739a23.783 23.783 0 0 0 23.783 23.782zm0-5.946a17.837 17.837 0 1 0-17.837-17.836 17.837 17.837 0 0 0 17.837 17.837zm0-2.973a14.864 14.864 0 1 0-14.864-14.863 14.864 14.864 0 0 0 14.864 14.864z" fill="#333" fill-rule="evenodd"/>
  </g>
</svg>