<svg xmlns="http://www.w3.org/2000/svg" width="220" viewBox="0 0 220 220">
  <g data-name="Group 4">
    <g data-name="Rectangle 18" transform="rotate(-45 134.862 55.861)" stroke="#eee" stroke-width="10" fill="none">
      <rect width="158" height="158" rx="20" stroke="none"/>
      <rect x="5" y="5" width="148" height="148" rx="15"/>
    </g>
    <path d="M111.349 151.795a40.551 40.551 0 1 0-40.551-40.549 40.551 40.551 0 0 0 40.551 40.549zm0-3.119a37.432 37.432 0 1 0-37.432-37.43 37.432 37.432 0 0 0 37.432 37.432zm6.617-30.815c-5.514 5.514-28.674 15.44-28.674 15.44s9.926-23.16 15.44-28.674 28.674-15.44 28.674-15.44-9.926 23.16-15.44 28.674zm-10.92-10.982c-4.412 4.416-11.248 20.072-11.248 20.072s15.66-6.838 20.072-11.249l-8.823-8.823z" fill="#333" fill-rule="evenodd"/>
  </g>
</svg>