<svg xmlns="http://www.w3.org/2000/svg" width="138" viewBox="0 0 138 61">
    <path data-name="Subtraction 13" d="M58.5 60.816a6.271 6.271 0 0 1-5.018-2.007 8.483 8.483 0 0 1-1.721-5.665H51.4a14.1 14.1 0 0 1-12.9 7.601 10.22 10.22 0 0 1-7.241-2.546 8.7 8.7 0 0 1-2.725-6.631 8.282 8.282 0 0 1 2.8-5.915c1.857-1.832 4.993-3.653 9.321-5.413l10.108-4.373v-3.012c0-2.76-.494-4.8-1.469-6.058a5.418 5.418 0 0 0-4.553-1.9 4.21 4.21 0 0 0-3.154 1.111 10.593 10.593 0 0 0-2.008 3.693 6.455 6.455 0 0 1-1.828 2.8 4.907 4.907 0 0 1-3.262 1 3.912 3.912 0 0 1-3.089-1.219 5.055 5.055 0 0 1-1.075-3.442c0-2.283 1.266-4.116 3.764-5.449s6.32-2.007 11.364-2.007c5.328 0 9.187.977 11.471 2.9s3.441 5.195 3.441 9.714v15.7c0 4.044.82 6.094 2.438 6.094a3.913 3.913 0 0 0 2.509-.932l1.076 2.079a7 7 0 0 1-3.119 2.833 10.716 10.716 0 0 1-4.769 1.044zM46.452 43.25a9.582 9.582 0 0 0-6.123 2.519 5.007 5.007 0 1 0 6.26.662 4.142 4.142 0 0 0-.176-.167 2.284 2.284 0 0 1 1.8-.842 3.675 3.675 0 0 1 1.725.493l.635-1.479a8.021 8.021 0 0 0-4.121-1.186zM16.2 60.816c-3.282 0-5.875-.772-7.707-2.294a7.957 7.957 0 0 1-2.76-6.453V26.044H.5v-3.226a18.968 18.968 0 0 0 7.206-3.692 16.038 16.038 0 0 0 4.337-5.7H15.7v8.675h8.245v3.943H15.7v22.011c0 2.95.326 5.073.968 6.309a3.4 3.4 0 0 0 3.262 1.865 4.6 4.6 0 0 0 4.23-2.581l1.505 2.079a7.221 7.221 0 0 1-3.37 3.818 12.874 12.874 0 0 1-6.095 1.271zm96.446-.715H68.611v-2.87a12.736 12.736 0 0 0 3.262-.465 3.782 3.782 0 0 0 1.936-1.291 5.547 5.547 0 0 0 .932-2.509 27.866 27.866 0 0 0 .251-4.123v-29.61c0-2.759-.048-5.062-.143-6.847a28.277 28.277 0 0 0-.359-3.694 3.047 3.047 0 0 0-1.613-2.366 12.377 12.377 0 0 0-4.553-.573V3.317L84.957.592v47.749a38.793 38.793 0 0 0 .216 4.589 5.992 5.992 0 0 0 .86 2.653 3.178 3.178 0 0 0 1.867 1.255 14.439 14.439 0 0 0 2.868.376 25.572 25.572 0 0 0 3.958-.412 3.776 3.776 0 0 0 1.936-1.255 5.287 5.287 0 0 0 .968-2.51 28.293 28.293 0 0 0 .252-4.194v-30.4c0-2.89-.048-5.206-.144-6.883a10.354 10.354 0 0 0-.753-3.764 2.683 2.683 0 0 0-1.864-1.542 16.087 16.087 0 0 0-3.405-.287v-2.65L107.7.592v39.862l6.883-6.523c2.468-2.325 4.253-4.1 5.3-5.27s1.578-2.021 1.578-2.545c0-.428-.446-.73-1.326-.9a31.511 31.511 0 0 0-4.911-.252V22.1H134.8v2.868h-.011a11.652 11.652 0 0 0-4.792.932 17.133 17.133 0 0 0-4.517 3.226l-6.954 6.523 12.4 17.566a10.463 10.463 0 0 0 3.226 3.154 8.718 8.718 0 0 0 4.158.86v2.868h-22.3v-2.866h.045a19.424 19.424 0 0 0 3.181-.178c.619-.119.933-.372.933-.753a6.825 6.825 0 0 0-.968-2.115c-.639-1.112-1.471-2.427-2.474-3.908l-5.449-8.174-3.578 3.443v2.8a37.986 37.986 0 0 0 .216 4.517 7.58 7.58 0 0 0 .752 2.689 2.82 2.82 0 0 0 1.506 1.326 7.278 7.278 0 0 0 2.473.358v2.869z" fill="#fff" stroke="transparent"/>
</svg>