<svg xmlns="http://www.w3.org/2000/svg" width="220" viewBox="0 0 220 220">
  <defs>
    <style>
      .cls-2{fill:#333}
    </style>
  </defs>
  <g id="Group_5" data-name="Group 5" transform="translate(-848 -1219.343)">
    <g id="Rectangle_21" data-name="Rectangle 21" transform="rotate(-45 2030.739 -358.094)" stroke="#eee" stroke-width="10" fill="none">
      <rect width="158" height="158" rx="20" stroke="none"/>
      <rect x="5" y="5" width="148" height="148" rx="15"/>
    </g>
    <g id="if_Appliances-08_976603" transform="translate(911.023 1283.141)">
      <path id="Path_5" data-name="Path 5" class="cls-2" d="M93.363 14H4.592A4.592 4.592 0 0 0 0 18.592V49.2a4.592 4.592 0 0 0 4.592 4.592h88.771a4.592 4.592 0 0 0 4.592-4.592V18.592A4.592 4.592 0 0 0 93.363 14zm1.531 35.2a1.531 1.531 0 0 1-1.531 1.531H4.592A1.531 1.531 0 0 1 3.061 49.2V18.592a1.531 1.531 0 0 1 1.531-1.531h88.771a1.531 1.531 0 0 1 1.531 1.531z" transform="translate(0 18.55)"/>
      <path id="Path_6" data-name="Path 6" class="cls-2" d="M25.061 26.122H22v3.061h6.122V20h-3.061z" transform="translate(45.344 30.916)"/>
      <path id="Rectangle_28" data-name="Rectangle 28" class="cls-2" transform="translate(64.283 63.161)" d="M0 0h9.183v3.061H0z"/>
      <path id="Rectangle_29" data-name="Rectangle 29" class="cls-2" transform="translate(12.244 50.916)" d="M0 0h55.099v3.061H0z"/>
      <path id="Rectangle_30" data-name="Rectangle 30" class="cls-2" transform="translate(6.122 50.916)" d="M0 0h3.061v3.061H0z"/>
      <path id="Rectangle_31" data-name="Rectangle 31" class="cls-2" transform="translate(6.122 38.672)" d="M0 0h3.061v3.061H0z"/>
      <path id="Rectangle_32" data-name="Rectangle 32" class="cls-2" transform="translate(6.122 57.038)" d="M0 0h6.122v3.061H0z"/>
      <path id="Rectangle_33" data-name="Rectangle 33" class="cls-2" transform="translate(6.122 63.161)" d="M0 0h9.183v3.061H0z"/>
      <path id="Rectangle_34" data-name="Rectangle 34" class="cls-2" transform="translate(18.366 63.161)" d="M0 0h42.855v3.061H0z"/>
      <path id="Rectangle_35" data-name="Rectangle 35" class="cls-2" transform="translate(15.305 57.038)" d="M0 0h48.977v3.061H0z"/>
      <path id="Rectangle_36" data-name="Rectangle 36" class="cls-2" transform="translate(6.122 44.794)" d="M0 0h67.344v3.061H0z"/>
      <path id="Rectangle_37" data-name="Rectangle 37" class="cls-2" transform="translate(76.527 44.794)" d="M0 0h15.305v3.061H0z"/>
      <path id="Rectangle_38" data-name="Rectangle 38" class="cls-2" transform="translate(12.244 38.672)" d="M0 0h61.222v3.061H0z"/>
      <path id="Rectangle_39" data-name="Rectangle 39" class="cls-2" transform="translate(76.527 50.916)" d="M0 0h15.305v3.061H0z"/>
      <path id="Path_7" data-name="Path 7" class="cls-2" d="M32.122 23h-3.061v3.061H26v3.061h9.183v-3.061h-3.061z" transform="translate(53.588 37.099)"/>
      <path id="Path_8" data-name="Path 8" class="cls-2" d="M20.714 26.428h13.775a10.714 10.714 0 1 0 0-21.428H20.714a10.714 10.714 0 0 0 0 21.428zm21.427-10.714a7.653 7.653 0 0 1-7.653 7.653h-6.122V8.061h6.122a7.653 7.653 0 0 1 7.653 7.653zM20.714 8.061h4.592v15.305h-4.592a7.653 7.653 0 1 1 0-15.305z" transform="translate(20.611)"/>
      <path id="Rectangle_40" data-name="Rectangle 40" class="cls-2" transform="translate(36.733 14.183)" d="M0 0h6.122v3.061H0z"/>
    </g>
  </g>
</svg>